<?xml version="1.0" standalone="no"?>
<!DOCTYPE svg PUBLIC "-//W3C//DTD SVG 20010904//EN"
 "http://www.w3.org/TR/2001/REC-SVG-20010904/DTD/svg10.dtd">
<svg version="1.0" xmlns="http://www.w3.org/2000/svg"
 width="1280.000000pt" height="798.000000pt" viewBox="0 0 1280.000000 798.000000"
 preserveAspectRatio="xMidYMid meet">
<metadata>
Created by potrace 1.15, written by Peter Selinger 2001-2017
</metadata>
<g transform="translate(0.000000,798.000000) scale(0.100000,-0.100000)"
fill="#000000" stroke="none">
<path d="M9713 7942 c-107 -85 -173 -178 -207 -292 -17 -59 -35 -91 -42 -75
-30 72 -77 100 -123 74 -23 -13 -26 -22 -29 -77 -3 -55 1 -70 29 -120 94 -167
99 -179 110 -258 6 -43 11 -146 12 -229 2 -127 -1 -155 -16 -183 -10 -18 -22
-30 -27 -27 -5 3 -17 32 -26 63 -26 91 -40 112 -74 112 -73 0 -79 -94 -19
-273 33 -99 40 -130 35 -166 -10 -74 -63 -112 -182 -131 -73 -12 -127 -39
-145 -73 -10 -18 -8 -24 17 -45 16 -14 48 -42 72 -64 l42 -38 -14 -35 c-18
-41 -100 -170 -114 -179 -6 -4 -31 32 -57 83 -46 89 -109 161 -141 161 -39 0
-84 -38 -84 -72 0 -6 37 -47 83 -92 121 -119 150 -184 175 -386 12 -98 165
-473 191 -468 28 5 25 62 -8 137 -17 38 -31 79 -31 91 0 35 30 82 100 155 92
96 130 151 130 190 0 105 -160 78 -243 -42 -17 -26 -41 -56 -52 -67 l-19 -20
-10 33 c-15 53 6 187 41 262 37 79 107 169 131 169 33 0 84 -64 135 -167 50
-105 83 -146 187 -233 69 -58 96 -117 110 -240 45 -398 220 -656 558 -825 315
-156 734 -211 1114 -145 62 10 136 26 163 34 73 23 112 21 129 -6 24 -37 193
-478 231 -605 20 -66 46 -128 57 -140 38 -40 98 -26 183 42 61 49 361 257 438
304 37 22 108 61 157 86 126 63 125 69 -22 223 -62 65 -155 173 -207 241 -172
226 -297 348 -494 483 -48 33 -90 64 -93 69 -2 4 7 27 21 50 34 53 41 100 24
151 l-13 41 39 31 c22 17 66 56 98 86 63 59 61 52 42 145 -6 27 1 37 75 109
44 44 83 90 86 103 4 13 1 44 -6 68 -7 24 -10 51 -7 58 3 8 55 49 117 92 126
89 151 121 125 161 -8 13 -31 34 -50 47 -19 12 -36 27 -39 33 -2 6 33 26 77
44 99 40 163 96 152 132 -4 13 -20 37 -36 54 -28 29 -29 31 -12 46 10 9 57 39
104 67 86 50 139 99 139 127 0 46 -53 87 -139 110 -96 24 -308 4 -603 -58
-164 -34 -190 -33 -261 12 -57 36 -60 57 -13 112 48 55 106 170 106 207 0 27
-7 36 -47 61 -25 16 -61 32 -78 36 -40 7 -231 -36 -306 -69 -60 -26 -394 -248
-495 -328 -132 -105 -269 -273 -397 -488 -41 -69 -101 -171 -133 -225 -32 -55
-64 -101 -70 -103 -12 -4 -69 88 -128 204 -78 156 -159 208 -351 227 -135 14
-263 -23 -372 -104 -56 -43 -83 -49 -103 -25 -23 28 -13 64 64 220 69 140 84
164 156 239 128 133 180 239 131 266 -28 14 -96 -17 -161 -75 -31 -27 -56 -43
-61 -38 -13 13 -32 333 -26 413 11 132 68 230 181 312 98 71 141 113 161 158
21 46 15 67 -20 80 -45 17 -72 11 -122 -28z"/>
<path d="M4853 7845 c-46 -20 -63 -52 -82 -162 l-17 -98 -45 -3 c-81 -4 -111
-13 -135 -39 -51 -55 -23 -148 89 -295 l65 -86 -70 -4 c-62 -3 -73 -7 -94 -31
-28 -33 -31 -83 -9 -130 8 -18 47 -72 85 -120 89 -113 102 -157 45 -157 -22 0
-49 22 -109 89 -86 96 -249 106 -483 30 -78 -25 -164 -81 -232 -149 -81 -81
-118 -144 -136 -230 -32 -156 -70 -249 -137 -337 -40 -53 -123 -117 -139 -107
-5 2 -24 35 -44 72 -45 85 -122 175 -252 295 -231 214 -416 318 -773 437 -374
125 -743 185 -1090 178 l-155 -3 -3 -27 c-3 -29 21 -82 122 -258 35 -63 62
-118 58 -121 -4 -4 -50 -11 -103 -17 -102 -11 -169 -33 -169 -54 0 -27 106
-141 186 -201 46 -35 120 -82 164 -106 44 -23 80 -46 80 -50 0 -13 -65 -77
-132 -130 -103 -81 -104 -80 120 -162 189 -69 172 -52 169 -168 -2 -117 5
-132 99 -197 83 -57 81 -67 -13 -98 -199 -66 -386 -89 -728 -90 -203 -1 -269
2 -350 18 -138 25 -315 77 -446 131 -139 57 -152 57 -173 5 -25 -62 -20 -98
25 -179 64 -118 109 -182 177 -247 34 -34 62 -66 62 -72 0 -14 -38 -34 -107
-56 -28 -9 -57 -24 -64 -32 -22 -27 14 -75 89 -120 58 -35 94 -51 209 -95 40
-15 27 -46 -47 -119 -39 -38 -70 -71 -70 -75 0 -3 4 -15 10 -25 13 -24 56 -37
150 -45 41 -4 83 -11 92 -16 17 -9 16 -13 -7 -58 -13 -27 -56 -84 -95 -126
-42 -45 -70 -83 -68 -93 2 -9 20 -25 41 -35 37 -19 40 -18 145 2 111 22 482
143 587 191 33 15 136 73 230 129 285 171 460 248 548 239 31 -3 28 -6 -75
-77 -59 -40 -109 -79 -112 -87 -8 -21 40 -52 97 -62 29 -6 101 -15 161 -21 61
-6 114 -15 119 -20 6 -6 -10 -30 -42 -64 -39 -41 -80 -69 -166 -113 -63 -33
-115 -62 -115 -66 0 -14 74 -57 131 -77 65 -22 115 -47 124 -61 12 -19 -23
-55 -205 -212 -102 -88 -192 -169 -199 -180 -13 -18 -13 -22 3 -34 48 -34 198
-30 365 11 59 14 108 22 113 17 11 -11 -61 -104 -253 -328 -83 -97 -148 -181
-146 -187 8 -24 51 -17 174 28 173 65 232 92 423 197 388 214 502 304 759 597
209 238 230 273 271 426 12 44 32 98 45 120 37 64 115 130 211 178 156 78 255
165 351 307 28 41 90 125 139 186 166 209 235 350 379 775 51 151 105 299 119
327 32 63 84 123 133 153 34 22 36 22 49 4 8 -10 21 -39 30 -64 57 -159 92
-205 231 -307 43 -32 120 -89 171 -127 73 -54 97 -68 116 -63 13 3 27 13 30
22 14 38 -82 174 -253 358 -112 121 -151 182 -151 236 0 33 16 44 83 55 33 5
37 9 37 37 0 25 -13 43 -70 97 -47 45 -70 75 -70 90 0 34 49 73 124 100 86 30
126 69 126 121 0 21 -6 43 -15 50 -18 15 -74 18 -137 7 -77 -13 -61 14 51 87
100 64 121 87 121 125 0 43 -34 61 -115 61 -94 0 -96 10 -13 81 91 79 134 184
87 209 -16 9 -32 8 -69 -4 -83 -27 -80 -30 -80 92 0 131 -11 177 -48 196 -45
22 -75 25 -109 11z"/>
<path d="M6798 3898 c-8 -7 -37 -51 -63 -98 -76 -134 -172 -270 -334 -472
-267 -334 -364 -503 -422 -742 -17 -70 -49 -298 -49 -348 0 -9 -7 -24 -16 -32
-13 -14 -42 -16 -192 -14 l-177 3 -65 -32 c-71 -34 -168 -112 -193 -153 -54
-91 -70 -324 -29 -442 30 -87 24 -108 -29 -108 -55 0 -85 23 -119 90 -40 80
-120 164 -187 196 l-55 27 -87 -15 c-99 -18 -181 -50 -181 -71 0 -36 138 -167
176 -167 6 0 17 -6 23 -14 15 -18 -2 -25 -80 -33 -95 -10 -105 -4 -130 80 -17
59 -29 80 -68 118 -51 49 -137 87 -251 111 -58 12 -63 11 -76 -7 -29 -39 -9
-125 45 -193 32 -41 40 -72 19 -72 -21 0 -78 51 -134 120 -71 89 -120 114
-207 108 -77 -5 -135 -32 -143 -65 -5 -20 2 -33 36 -68 23 -23 59 -67 79 -96
70 -101 117 -116 246 -79 84 24 126 25 166 5 33 -18 33 -17 -24 -90 -48 -60
-87 -140 -87 -177 0 -34 25 -42 110 -36 55 4 64 9 132 64 40 33 94 87 121 120
66 83 84 90 233 99 155 9 171 1 104 -53 -73 -59 -138 -128 -159 -170 -22 -44
-30 -107 -16 -121 10 -10 118 24 222 69 64 27 131 96 172 179 17 33 33 61 36
61 2 0 14 -19 26 -42 17 -33 20 -52 16 -90 -8 -60 5 -98 33 -98 11 0 43 16 71
35 28 19 60 35 71 35 24 0 59 -37 96 -104 56 -97 160 -177 287 -220 66 -22 91
-45 156 -141 88 -131 222 -257 394 -370 177 -117 256 -158 425 -224 124 -47
127 -48 300 -60 96 -6 267 -16 380 -22 223 -11 354 -26 497 -58 51 -12 111
-21 134 -21 22 0 145 18 272 41 173 30 248 48 295 69 71 33 78 51 38 103 -40
52 -116 218 -116 251 0 18 13 50 30 75 32 46 46 88 56 164 6 40 4 47 -17 60
-13 8 -40 18 -59 22 -19 4 -38 12 -41 18 -4 5 6 47 21 92 48 141 48 142 3 162
-21 10 -40 18 -41 19 -2 2 7 35 21 76 31 91 62 266 53 301 -4 17 -15 29 -31
33 -20 5 -39 -7 -115 -77 -116 -107 -239 -195 -360 -258 -126 -66 -266 -121
-306 -121 l-33 0 115 177 c63 97 114 182 114 189 0 6 -6 17 -14 23 -11 10 -23
8 -54 -8 -74 -38 -68 -12 44 175 101 166 144 260 144 311 0 12 -1 23 -2 23 -2
0 -39 -11 -83 -25 -44 -14 -81 -25 -82 -25 -10 0 6 32 69 136 129 214 133 241
36 230 -36 -3 -58 -2 -58 4 0 6 13 34 30 63 113 202 146 446 117 890 -10 168
-17 221 -29 233 -13 14 -27 1 -125 -123 -124 -155 -311 -326 -518 -475 -57
-40 -324 -208 -331 -208 -3 0 -2 41 2 90 l7 90 -24 0 c-47 0 -51 11 -32 81 25
89 24 302 -1 419 -18 83 -95 374 -136 511 -28 92 -54 117 -92 87z m-1184
-2712 c93 -43 94 -44 114 -97 11 -30 23 -62 27 -71 6 -14 2 -18 -16 -18 -38 0
-107 39 -145 83 -31 36 -84 126 -84 142 0 9 8 6 104 -39z"/>
</g>
</svg>
